# xmcd
#
# Track frame offsets:
#	183
#	14875
#	28825
#	42770
#	56768
#	70075
#	83038
#	95758
#	108320
#	121110
#	132698
#	146800
#	160768
#	174623
#	189213
#	202233
#	215163
#	227905
#	240450
#	252823
#
# Disc length: 3533
#
# Revision: 1
# Processed by: cddbd v1.5.1PL0 Copyright (c) Steve Scherf et al.
# Submitted via: WhereIsIt 3.11
# Normalized: r0:TDELIM( - )
#
DISCID=2a0dcb14
DTITLE=Various Artist - The Classic Bluesmen (Volume 1)
DYEAR=1900
DGENRE=
TTITLE0=Joe Turner - Rocks In My Bed
TTITLE1=Leroy Carr - Midnight Hours Blues
TTITLE2=Sleepy John Estes - I Ain't Gonna Be Worried No More
TTITLE3=Barbeque Bob - She's Coming Back Some Cold Rainy Day
TTITLE4=Tampa Red - You Can't Get That Stuff No More
TTITLE5=Big Bill Broonzy - Bull Cow Blues
TTITLE6=Bukka White - Pinebluff Arkanas
TTITLE7=Champion Jack Dupree - Gamblin' Man Blues
TTITLE8=Big Bill Broonzy - It's Your Time Now
TTITLE9=Robert Johnson - Phonograph Blues
TTITLE10=Blind Willie McTell - Broke Down Engine
TTITLE11=Sonny Boy Williamson - Blue Birds Blues
TTITLE12=Blind Willie Johnson - I Know HisBlood Can Make Me Whole
TTITLE13=Blind Boy Fuller - Baby You Gotta Change Your Mind
TTITLE14=Leadbelly - Good Morning Blues
TTITLE15=Robert Johnson - Preaching Blues
TTITLE16=Arthur "Big Boy" Crudup - GonnaFollow My Baby
TTITLE17=Lonnie Johnson - Mr. Johnsos's Swing
TTITLE18=Brownie McGhee - Picking My Tomatoes
TTITLE19=Rooseveld Sykes - 15c A Day
EXTD=
EXTT0=
EXTT1=
EXTT2=
EXTT3=
EXTT4=
EXTT5=
EXTT6=
EXTT7=
EXTT8=
EXTT9=
EXTT10=
EXTT11=
EXTT12=
EXTT13=
EXTT14=
EXTT15=
EXTT16=
EXTT17=
EXTT18=
EXTT19=
PLAYORDER=
